<?xml version="1.0" standalone="no"?>
<!DOCTYPE svg PUBLIC "-//W3C//DTD SVG 20010904//EN"
 "http://www.w3.org/TR/2001/REC-SVG-20010904/DTD/svg10.dtd">
<svg version="1.0" xmlns="http://www.w3.org/2000/svg"
 width="236.000000pt" height="236.000000pt" viewBox="0 0 236.000000 236.000000"
 preserveAspectRatio="xMidYMid meet">

<g transform="translate(0.000000,236.000000) scale(0.100000,-0.100000)"
fill="#000000" stroke="none">
<path d="M637 2349 c-196 -19 -322 -74 -437 -189 -119 -118 -171 -244 -190
-453 -12 -134 -12 -935 0 -1060 20 -206 73 -330 190 -447 116 -116 237 -168
441 -190 120 -12 943 -13 1072 0 206 20 330 73 447 190 117 117 170 241 190
447 13 129 12 952 0 1072 -22 204 -74 325 -190 441 -117 117 -241 170 -447
190 -119 12 -953 11 -1076 -1z m1121 -219 c185 -32 303 -128 352 -288 32 -101
43 -354 37 -797 -3 -209 -11 -408 -17 -443 -24 -140 -84 -240 -179 -301 -83
-54 -156 -71 -351 -83 -207 -12 -906 -4 -998 12 -140 24 -240 84 -301 179 -54
84 -71 155 -83 356 -12 211 -4 899 12 993 32 186 126 302 290 353 41 13 113
24 195 29 177 11 964 4 1043 -10z"/>
<path d="M1735 1930 c-118 -77 -64 -260 76 -260 141 0 192 182 73 261 -39 25
-110 25 -149 -1z"/>
<path d="M1090 1780 c-134 -21 -259 -88 -353 -189 -67 -73 -99 -127 -133 -227
-22 -66 -27 -97 -27 -184 0 -91 4 -117 30 -190 16 -47 46 -112 67 -143 80
-121 229 -225 366 -258 30 -7 98 -13 150 -13 158 1 296 59 413 172 116 114
179 260 180 422 1 52 -5 120 -12 150 -33 137 -137 286 -258 366 -114 75 -290
115 -423 94z m253 -243 c74 -34 160 -119 195 -194 24 -52 27 -70 27 -163 0
-93 -3 -111 -27 -163 -35 -74 -121 -160 -195 -195 -52 -24 -70 -27 -163 -27
-99 0 -110 2 -172 33 -78 38 -149 110 -187 192 -23 49 -26 67 -26 160 1 88 4
113 23 155 46 100 131 177 235 216 76 28 211 22 290 -14z"/>
</g>
</svg>
